<svg xmlns="http://www.w3.org/2000/svg" width="39.844" height="40"><path data-name="" d="M1.648 20a18.236 18.236 0 105.33-13.007A17.738 17.738 0 001.648 20zm38.2 0a19.966 19.966 0 11-5.836-14.14A19.309 19.309 0 0139.849 20zm-7.625-7.656L30.9 11.016 19.93 22.188l-7.624-7.812-1.323 1.327 8.947 8.829zM19.93 3.672A1.327 1.327 0 1021.254 5a1.332 1.332 0 00-1.323-1.329zm0 30A1.327 1.327 0 1021.254 35a1.33 1.33 0 00-1.323-1.328zm-14.937-15A1.327 1.327 0 106.316 20a1.332 1.332 0 00-1.322-1.329zm29.875 0A1.327 1.327 0 1036.192 20a1.332 1.332 0 00-1.323-1.329z" fill="#b27cf5" fill-rule="evenodd"/></svg>