<svg xmlns="http://www.w3.org/2000/svg" width="39.75" height="39.938"><path data-name="" d="M39.74 19.976a19.316 19.316 0 01-5.83 14.114 19.977 19.977 0 110-28.229 19.32 19.32 0 015.83 14.115zm-1.59 0a17.775 17.775 0 00-5.36-12.99 18.381 18.381 0 100 25.978 17.77 17.77 0 005.36-12.988zm-6.62-7.129a1.03 1.03 0 01-.1 1.689L17.81 27.853a.98.98 0 01-.74.281 1.146 1.146 0 01-.84-.281l-5.32-5.346a1.19 1.19 0 011.68-1.687l4.48 4.5 12.78-12.473a1.048 1.048 0 011.68 0z" fill="#feb960" fill-rule="evenodd"/></svg>