<svg xmlns="http://www.w3.org/2000/svg" width="29.76" height="30"><path data-name="" d="M29.06.7a3.664 3.664 0 01.7 2.6c0 10.4-.02 18.2-.06 23.5a3.442 3.442 0 01-.73 2.5 3.509 3.509 0 01-2.55.7h-9.67a2.442 2.442 0 01-1.4-.3 1.74 1.74 0 01-.35-1.4v-5q0-3.45.06-5.1a1.737 1.737 0 00-.3-1.2 1.536 1.536 0 00-1.11-.3 9.852 9.852 0 01-2.46 0c-.47 0-.7-.1-.7-.5a.577.577 0 01.7-.6h2.69a.971.971 0 00.97-.2 1.312 1.312 0 00.21-1 21.352 21.352 0 010-3.2 3.354 3.354 0 011.23-2.8 3.8 3.8 0 013.04-.6 7.343 7.343 0 012.64.7c.04 0 .08.1.12.1.5.2.7.5.58.8-.19.4-.6.5-1.23.2a8.577 8.577 0 00-2.93-.7 1.969 1.969 0 00-2.11 1.7 7.5 7.5 0 00-.2 1.4c-.02.5-.02 1 0 1.6s.03 1 .03 1.3v.3c.04.3.35.4.94.4h4.51q.99 0 .99.6c0 .6-.35.8-1.05.7-.94 0-2.42 0-4.45-.1a.9.9 0 00-.8.2 1.118 1.118 0 00-.2.8c.08 3.2.08 6.5 0 9.8a.964.964 0 001.05 1.1h2.93c1.02 0 2.15.1 3.4.1s2.23.1 2.93.1a2.409 2.409 0 001.52-.4 2.8 2.8 0 00.42-1.6l.17-23.2a2.944 2.944 0 00-.35-1.9 2.833 2.833 0 00-1.99-.4q-7.56-.3-22.8-.3a2.66 2.66 0 00-1.7.4 3.676 3.676 0 00-.41 1.8s-.05 7.7-.17 23a3.324 3.324 0 00.38 2 3.664 3.664 0 001.9.3c2.27 0 3.95 0 5.04.1q1.23 0 1.29.6c0 .4-.41.7-1.23.7H2.63A2.542 2.542 0 010 27.2V15.1h.06v-12A3.262 3.262 0 01.76.7a3.2 3.2 0 012.4-.7h23.38a3.906 3.906 0 012.52.7z" fill="#fff" fill-rule="evenodd"/></svg>