<svg xmlns="http://www.w3.org/2000/svg" width="43.72" height="40"><path data-name="" d="M27.5 39.99H0v-40h27.5v40zM1.25 1.24v3.75h25V1.24h-25zm0 5v25h25v-25h-25zm25 32.5v-6.25h-25v6.25h25zm-15-35h5V2.49h-5v1.25zm4.37 31.87a1.818 1.818 0 01-.54 1.33 1.883 1.883 0 01-2.66 0 1.881 1.881 0 113.2-1.33zm-1.87-.62a.543.543 0 00-.62.62.62.62 0 101.24 0 .543.543 0 00-.62-.62zm14.03-25h15.94v30H27.78v-30zm15 29.06v-4.69H28.72v4.69h14.06zm0-5.63V14.67H28.72v18.75h14.06zm-14.06-22.5v2.82h14.06v-2.82H28.72zm5.16 1.88h3.74v-.94h-3.74v.94zm3.28 23.9a1.358 1.358 0 01-.41 1 1.425 1.425 0 01-2 0 1.412 1.412 0 010-1.99 1.425 1.425 0 012 0 1.351 1.351 0 01.41.99zm-1.41-.46a.465.465 0 10.47.46.411.411 0 00-.47-.46z" fill="#feb960" fill-rule="evenodd"/></svg>