<svg xmlns="http://www.w3.org/2000/svg" width="30" height="30"><path data-name="" d="M30 27.1a2.945 2.945 0 01-.64 2.2 2.822 2.822 0 01-2.23.7H2.81A2.47 2.47 0 010 27.3v-6c0-.7.21-1.1.64-1.1a.923.923 0 01.53 1.1V27a1.674 1.674 0 001.82 1.9h24.02a1.6 1.6 0 001.82-1.8v-9.4a1.092 1.092 0 00-.24-.9.735.735 0 00-.82-.2h-.88a4.96 4.96 0 00-3.07.3 4.062 4.062 0 00-1.79 2.5 5.784 5.784 0 01-2.84 3.4 7.178 7.178 0 01-4.37 1 8.538 8.538 0 01-4.62-1.9A6.746 6.746 0 017.62 18a1.6 1.6 0 00-2-1.4H1.29A1.065 1.065 0 010 15.4V2.3C.08.8 1 0 2.75 0h24.5A2.481 2.481 0 0130 2.8v24.3zm-10.05-6.5a6.608 6.608 0 001.91-4.8 6.157 6.157 0 00-1.91-4.6 7.37 7.37 0 00-4.83-2 6.572 6.572 0 00-4.66 2 6.528 6.528 0 00.06 9.5 6.087 6.087 0 004.66 1.8 6.752 6.752 0 004.77-1.9zm8.61-5.6a1.123 1.123 0 00.27-1c-.08-3.7-.08-7.3 0-11a2.008 2.008 0 00-.44-1.4 2.045 2.045 0 00-1.5-.4H2.93a1.738 1.738 0 00-1.35.4 1.669 1.669 0 00-.41 1.3v11.2a1.014 1.014 0 00.27.9 1.143 1.143 0 00.9.2 23.393 23.393 0 013.52.1 2 2 0 001.17-.1 2.1 2.1 0 00.53-1.2 7.794 7.794 0 012.87-4.4A7.356 7.356 0 0115.29 8a8.068 8.068 0 014.72 1.7 7.8 7.8 0 012.78 4.3 1.438 1.438 0 001.53 1.3 16.048 16.048 0 013.16-.1 1.188 1.188 0 001.08-.2zM26.48 3.9a4.954 4.954 0 01.36 2.5 3.8 3.8 0 01-.47 2.4 3.643 3.643 0 01-2.29.5 3.876 3.876 0 01-2.37-.5 4.356 4.356 0 01-.5-2.6 4.262 4.262 0 01.41-2.4 6.284 6.284 0 012.64-.3c1.25 0 1.99.1 2.22.4zm-.76 2.3a2.129 2.129 0 00-.38-1.3 1.22 1.22 0 00-1.26-.2 1.813 1.813 0 00-1.35.2 1.425 1.425 0 00-.35 1.3 3.466 3.466 0 00.33 1.5 1.737 1.737 0 001.25.3 2.215 2.215 0 001.38-.4 1.831 1.831 0 00.38-1.4zm-8.08 13.5q-.06.3.03.3a.125.125 0 01-.12.2c-.14.1-.22.2-.24.2a.463.463 0 01-.26.1l-.23.1A6.531 6.531 0 0115 21a4.9 4.9 0 01-3.98-2.1 4.334 4.334 0 01-1-4.2.8.8 0 01.06-.3 1.969 1.969 0 01.12-.4.784.784 0 00.17-.2h.35c.39 0 .55.4.47 1.1a3.973 3.973 0 001.23 3.9 4.349 4.349 0 004.04.7c.67-.2 1.06-.2 1.18.2z" fill="#fff" fill-rule="evenodd"/></svg>