<svg xmlns="http://www.w3.org/2000/svg" width="35.94" height="34.68"><path data-name="" d="M35.94 5.31a5.212 5.212 0 01-1.56 3.83 5.145 5.145 0 01-3.75 1.56 5.026 5.026 0 01-4.61-2.66l-15.55 6.57a7.512 7.512 0 01.16 1.4 5.647 5.647 0 01-.63 2.58l10 7.19a5.188 5.188 0 013.99-1.8 5.069 5.069 0 013.75 1.6 5.252 5.252 0 011.56 3.79 5.315 5.315 0 01-10.63 0 5.279 5.279 0 01.55-2.5l-10-7.27a5.041 5.041 0 01-3.91 1.72 5.171 5.171 0 01-3.75-1.52 5.384 5.384 0 010-7.58 5.211 5.211 0 013.75-1.52 4.924 4.924 0 014.61 2.66l15.63-6.57a4.546 4.546 0 01-.24-1.48A5.343 5.343 0 0130.63 0a5.326 5.326 0 015.31 5.31zM20 29.37a3.985 3.985 0 007.97 0 3.937 3.937 0 00-1.17-2.89 3.971 3.971 0 00-5.63 0A3.937 3.937 0 0020 29.37zM9.3 16.01a4.012 4.012 0 10-1.17 2.81 3.837 3.837 0 001.17-2.81zm25.31-10.7a3.985 3.985 0 00-7.97 0 3.937 3.937 0 001.17 2.89 3.971 3.971 0 005.63 0 3.937 3.937 0 001.17-2.89z" fill="#fc5f45" fill-rule="evenodd"/></svg>