<svg xmlns="http://www.w3.org/2000/svg" width="50.06" height="44.34"><path data-name="" d="M50.05 17.37h-1.96v26.98H1.96V17.37H.01V9.62h15.93A5.744 5.744 0 0120.24 0a5.893 5.893 0 009.58 0 5.78 5.78 0 014.3 9.62h15.93v7.75zM27.13 3.04a3.873 3.873 0 00-1.12 2.75v3.83h3.81a3.82 3.82 0 002.73-1.13 3.587 3.587 0 001.18-2.7 3.832 3.832 0 00-1.13-2.8 3.778 3.778 0 00-2.78-1.12 3.592 3.592 0 00-2.69 1.17zM17.5 8.49a3.843 3.843 0 002.74 1.13h3.81V5.79a3.873 3.873 0 00-1.12-2.75 3.607 3.607 0 00-2.69-1.17 3.784 3.784 0 00-2.79 1.12 3.823 3.823 0 00-1.12 2.8 3.613 3.613 0 001.17 2.7zM1.96 15.41h22.09v-3.83H1.96v3.83zm1.86 27.07h20.23V17.37H3.82v25.11zm42.42-25.11H26.01v25.11h20.23V17.37zm1.85-5.79H26.01v3.83h22.08v-3.83z" fill="#feb960" fill-rule="evenodd"/></svg>