<svg xmlns="http://www.w3.org/2000/svg" width="46.188" height="50.07"><path data-name="" d="M7.294 29.35a17.4 17.4 0 00-5.235 12.71v4.01h22.015v1.96H.003v-5.97a19.609 19.609 0 014.11-12.22 18.906 18.906 0 0110.372-7.04 12.907 12.907 0 01-4.795-4.4 11.34 11.34 0 01-1.859-6.36 11.484 11.484 0 013.571-8.5 12.012 12.012 0 0120.5 8.5 11.815 11.815 0 01-1.81 6.41 11.6 11.6 0 01-4.844 4.35 19.441 19.441 0 019.1 5.28h-3.033a17.517 17.517 0 00-11.253-4.01 17.3 17.3 0 00-12.768 5.28zm12.769-7.33a9.789 9.789 0 007.143-2.89 10.017 10.017 0 000-14.17 9.789 9.789 0 00-7.143-2.89 9.975 9.975 0 10-.001 19.95zm26.126 22.1h-6.067v5.96h-1.958v-5.96h-6.07v-2.06h6.067V36.1h1.957v5.96h6.067v2.06z" fill="#38c695" fill-rule="evenodd"/></svg>