<svg xmlns="http://www.w3.org/2000/svg" width="50.12" height="42.84"><path data-name="" d="M50.11 13.31a12.978 12.978 0 01-3.91 9.48L25.06 42.84 3.93 22.99a13.359 13.359 0 01-3.92-9.64 13.012 13.012 0 013.92-9.53 13.177 13.177 0 019.78-3.83 12.7 12.7 0 019.39 3.83 28.979 28.979 0 012.16 2.95 11.4 11.4 0 012.15-2.95 13.438 13.438 0 0118.79 0 12.985 12.985 0 013.91 9.49zm-2.15-.25A11 11 0 0044.63 5a10.5 10.5 0 00-8.02-3.34A10.993 10.993 0 0028.49 5c-.53.66-1.08 1.41-1.67 2.26l-1.76 2.95-1.76-2.95A18.649 18.649 0 0021.64 5 11.579 11.579 0 005.3 21.41l19.76 18.98 19.77-18.98a11.332 11.332 0 003.13-8.35z" fill="#b27cf5" fill-rule="evenodd"/></svg>