<svg xmlns="http://www.w3.org/2000/svg" width="15" height="15"><path data-name="" d="M14.18.82A2.7 2.7 0 0115 2.81v9.38A2.8 2.8 0 0112.19 15H2.81A2.8 2.8 0 010 12.19V2.81A2.8 2.8 0 012.81 0h9.38a2.7 2.7 0 011.99.82zm-2.02 4.04a5.072 5.072 0 01-1.06.3 1.708 1.708 0 00.79-1.03 3.3 3.3 0 01-1.17.44 1.736 1.736 0 00-1.35-.59 1.764 1.764 0 00-1.3.56 1.793 1.793 0 00-.54 1.29 2.443 2.443 0 00.06.44 5.157 5.157 0 01-3.81-1.93 1.823 1.823 0 00-.26.93 1.729 1.729 0 00.85 1.53 1.535 1.535 0 01-.85-.24v.03a1.781 1.781 0 00.42 1.16 1.915 1.915 0 001.07.66 3.356 3.356 0 01-.5.06 1.559 1.559 0 01-.35-.03 1.754 1.754 0 001.73 1.29 3.72 3.72 0 01-2.29.79c-.06 0-.13-.01-.23-.02a1.971 1.971 0 00-.21-.01 5.21 5.21 0 002.82.82 4.825 4.825 0 003.83-1.63 5.321 5.321 0 001.44-3.62c0-.03-.01-.08-.01-.13a.838.838 0 01-.02-.1 3.491 3.491 0 00.94-.97z" fill="#616161" fill-rule="evenodd"/></svg>