<svg xmlns="http://www.w3.org/2000/svg" width="15" height="15"><path data-name="" d="M14.18.82A2.7 2.7 0 0115 2.81v9.38A2.8 2.8 0 0112.19 15H2.81A2.8 2.8 0 010 12.19V2.81A2.8 2.8 0 012.81 0h9.38a2.7 2.7 0 011.99.82zM5.62 4.57H3.75v6.56h1.87V4.57zm0-1.29a.87.87 0 00-.24-.61.832.832 0 00-.63-.27.8.8 0 00-.63.27.894.894 0 000 1.24.821.821 0 00.63.25.852.852 0 00.63-.25.868.868 0 00.24-.63zm6.57 3.84a3.73 3.73 0 00-.21-1.32 1.719 1.719 0 00-.51-.79 2.275 2.275 0 00-.59-.34 1.555 1.555 0 00-.57-.1 2.888 2.888 0 00-1.87.62v-.62H6.56v6.56h1.88V7.09l.06-.21a1.089 1.089 0 01.36-.41 1.248 1.248 0 01.72-.2.685.685 0 01.73.82v4.04h1.88V7.12z" fill="#616161" fill-rule="evenodd"/></svg>