<svg xmlns="http://www.w3.org/2000/svg" width="15" height="15"><path data-name="" d="M14.18.82A2.7 2.7 0 0115 2.81v9.38A2.8 2.8 0 0112.19 15H2.81A2.8 2.8 0 010 12.19V2.81A2.8 2.8 0 012.81 0h9.38a2.7 2.7 0 011.99.82zm-1.99 2.34a.312.312 0 00-.35-.35H3.16a.312.312 0 00-.35.35v8.68a.312.312 0 00.35.35h8.68a.312.312 0 00.35-.35V3.16zM9.37 5.62h1.88V3.75H9.37v1.87zm-1.87 0a1.913 1.913 0 11-1.32.56 1.808 1.808 0 011.32-.56zm2.72 1.41h1.03v4.22h-7.5V7.03h1.03a3.408 3.408 0 00-.06.47 2.664 2.664 0 00.82 1.98 2.8 2.8 0 003.92 0 2.664 2.664 0 00.82-1.98 3.408 3.408 0 00-.06-.47z" fill="#616161" fill-rule="evenodd"/></svg>