<svg xmlns="http://www.w3.org/2000/svg" width="51.969" height="46.7"><path data-name="" d="M27.031 35.8v3.9l9.367 5.3-.937 1.7-9.483-5.2-9.484 5.2-.937-1.7 9.367-5.3v-3.9H-.015V0H51.97v35.8H27.031zM1.976 33.9h48v-32h-48v32zM29.022 7.7l1.873.6-5.5 18.4-6.439-8.9-4.215 8.3-5.62-11.4-3.162 11.7-1.99-.5L8.535 9.2l6.206 12.5 3.98-7.7 5.972 8.3zm15.22 5.9a5.955 5.955 0 011.757 4.4 5.826 5.826 0 01-1.757 4.2 6.128 6.128 0 01-4.332 1.7 5.985 5.985 0 01-4.215-1.7 5.829 5.829 0 01-1.756-4.2 5.906 5.906 0 015.971-6.1 6.128 6.128 0 014.332 1.7zm-1.463 7.2a3.9 3.9 0 001.229-2.8 3.59 3.59 0 00-1.229-2.8A3.98 3.98 0 0039.91 14a3.784 3.784 0 00-2.81 1.2 3.672 3.672 0 00-1.17 2.8 3.9 3.9 0 001.229 2.8 4.185 4.185 0 002.751 1.1 4.329 4.329 0 002.869-1.1z" fill="#feb960" fill-rule="evenodd"/></svg>