<svg xmlns="http://www.w3.org/2000/svg" width="47.969" height="47.9"><path data-name="" d="M47.956 0v47.9H.005V0h47.951zM1.993 2v9h43.975V2H1.993zm43.975 43.9v-33H1.993v33h43.975zM14.975 8h3.041V5h-3.041v3zm14.97 0h3.041V5H29.95v3zM17.198 19.7h1.752v15.7h-2.1V24.3h-3.86v-1.7h.351c1.012 0 1.7-.1 2.047-.1a2.487 2.487 0 001.111-.7 2.624 2.624 0 00.7-1.7v-.4zm15.613 6.6a5.354 5.354 0 011.462 3.9 5.418 5.418 0 01-1.638 4 5.528 5.528 0 01-3.859 1.5 5 5 0 01-3.8-1.4 4.66 4.66 0 01-1.462-3.6v-.3h2.105v.3a3.1 3.1 0 00.936 2.3 3.238 3.238 0 002.339.9 3 3 0 002.4-1.1 4.462 4.462 0 00.878-2.7 3.578 3.578 0 00-.936-2.5 3.547 3.547 0 00-5.5.7l-.117.1h-1.754l1.637-8.4h8.07v1.9h-6.549l-.7 3.7a4.02 4.02 0 012.573-.8 5.223 5.223 0 013.915 1.5z" fill="#fc5f45" fill-rule="evenodd"/></svg>