<svg xmlns="http://www.w3.org/2000/svg" width="45.844" height="48"><path data-name="" d="M44.731 8.3a5.177 5.177 0 01-2.866 1.7v34.1h-1.988V10a5.321 5.321 0 01-2.865-1.8A4.934 4.934 0 0135.901 5a4.59 4.59 0 011.462-3.5A4.789 4.789 0 0140.93 0a4.665 4.665 0 013.45 1.5A4.6 4.6 0 0145.842 5a5.026 5.026 0 01-1.111 3.3zm-1.755-1.1a2.978 2.978 0 00.877-2.2 2.914 2.914 0 00-.877-2.1A2.771 2.771 0 0040.93 2a3.034 3.034 0 00-3.041 3 2.978 2.978 0 00.877 2.2 2.9 2.9 0 002.164.9 2.771 2.771 0 002.046-.9zM8.826 39.8A5.145 5.145 0 019.937 43a4.977 4.977 0 01-1.462 3.6A4.707 4.707 0 014.908 48a4.56 4.56 0 01-3.45-1.4 5.164 5.164 0 01-.351-6.8 4.66 4.66 0 012.865-1.7V4H5.96v34.1a4.665 4.665 0 012.866 1.7zm-1.754 5.4a3.2 3.2 0 000-4.4 3.253 3.253 0 00-2.164-.8 3.1 3.1 0 00-2.047.8 3.2 3.2 0 000 4.4 2.772 2.772 0 002.047.9 2.9 2.9 0 002.164-.9zm19.765-24.3a4.873 4.873 0 011.111 3.1 4.945 4.945 0 01-1.111 3.2 4.665 4.665 0 01-2.866 1.7v15.2h-2.105V28.9a4.66 4.66 0 01-2.865-1.7A4.934 4.934 0 0117.89 24a4.862 4.862 0 011.111-3.1 4.383 4.383 0 012.865-1.8V4h2.105v15.1a4.387 4.387 0 012.866 1.8zM25.96 24a2.83 2.83 0 00-.936-2.1 2.912 2.912 0 00-4.21 0 2.824 2.824 0 000 4.2 2.716 2.716 0 004.21 0 2.83 2.83 0 00.936-2.1z" fill="#38c695" fill-rule="evenodd"/></svg>